<svg xmlns="http://www.w3.org/2000/svg" xmlns:xlink="http://www.w3.org/1999/xlink" width="500" zoomAndPan="magnify" viewBox="0 0 375 374.999991" height="500" preserveAspectRatio="xMidYMid meet" version="1.0"><defs><clipPath id="b7652b903d"><path d="M 95.09375 257.457031 L 99 257.457031 L 99 261 L 95.09375 261 Z M 95.09375 257.457031 " clip-rule="nonzero"/></clipPath><clipPath id="7be9b32b27"><path d="M 95.09375 261 L 100 261 L 100 278.457031 L 95.09375 278.457031 Z M 95.09375 261 " clip-rule="nonzero"/></clipPath><clipPath id="13bad1d692"><path d="M 101 262 L 106 262 L 106 278.457031 L 101 278.457031 Z M 101 262 " clip-rule="nonzero"/></clipPath><clipPath id="5e6f83247e"><path d="M 107 257.457031 L 112 257.457031 L 112 261 L 107 261 Z M 107 257.457031 " clip-rule="nonzero"/></clipPath><clipPath id="6ece02b2ec"><path d="M 107 261 L 112 261 L 112 278.457031 L 107 278.457031 Z M 107 261 " clip-rule="nonzero"/></clipPath><clipPath id="ab9c3245be"><path d="M 113 262 L 118.34375 262 L 118.34375 278.457031 L 113 278.457031 Z M 113 262 " clip-rule="nonzero"/></clipPath><clipPath id="58240a71ad"><path d="M 222 239 L 375 239 L 375 343.5 L 222 343.5 Z M 222 239 " clip-rule="nonzero"/></clipPath><clipPath id="f696a0465f"><path d="M 121 218 L 305 218 L 305 343.5 L 121 343.5 Z M 121 218 " clip-rule="nonzero"/></clipPath><clipPath id="ee46cf9057"><path d="M 42 37.5 L 181 37.5 L 181 177 L 42 177 Z M 42 37.5 " clip-rule="nonzero"/></clipPath><clipPath id="bef92f0f79"><path d="M 42 37.5 L 146 37.5 L 146 141 L 42 141 Z M 42 37.5 " clip-rule="nonzero"/></clipPath><clipPath id="ef8cf2387a"><path d="M 0 190 L 224 190 L 224 343.5 L 0 343.5 Z M 0 190 " clip-rule="nonzero"/></clipPath><clipPath id="b331bd2421"><path d="M 97 220 L 224 220 L 224 343.5 L 97 343.5 Z M 97 220 " clip-rule="nonzero"/></clipPath></defs><g clip-path="url(#b7652b903d)"><path fill="#000000" d="M 96.8125 260.96875 C 97.757812 260.96875 98.53125 260.179688 98.53125 259.210938 C 98.53125 258.246094 97.757812 257.457031 96.8125 257.457031 C 95.863281 257.457031 95.09375 258.246094 95.09375 259.210938 C 95.09375 260.179688 95.863281 260.96875 96.8125 260.96875 " fill-opacity="1" fill-rule="nonzero"/></g><g clip-path="url(#7be9b32b27)"><path fill="#000000" d="M 98.53125 277.40625 L 97.777344 277.40625 L 97.777344 269.644531 C 98.25 269.316406 98.53125 268.78125 98.53125 268.191406 L 98.53125 263.285156 C 98.53125 262.320312 97.757812 261.53125 96.8125 261.53125 C 95.863281 261.53125 95.09375 262.320312 95.09375 263.285156 L 95.09375 268.191406 C 95.09375 268.8125 95.410156 269.378906 95.925781 269.695312 L 95.925781 278.324219 C 95.925781 278.398438 95.984375 278.457031 96.058594 278.457031 L 99.167969 278.457031 C 99.242188 278.457031 99.300781 278.398438 99.300781 278.324219 C 99.300781 277.898438 98.964844 277.40625 98.53125 277.40625 " fill-opacity="1" fill-rule="nonzero"/></g><path fill="#000000" d="M 103.378906 261.535156 C 104.300781 261.535156 105.046875 260.769531 105.046875 259.832031 C 105.046875 258.894531 104.300781 258.132812 103.378906 258.132812 C 102.460938 258.132812 101.714844 258.894531 101.714844 259.832031 C 101.714844 260.769531 102.460938 261.535156 103.378906 261.535156 " fill-opacity="1" fill-rule="nonzero"/><g clip-path="url(#13bad1d692)"><path fill="#000000" d="M 105.042969 277.433594 L 104.320312 277.433594 L 104.320312 274.128906 L 105.660156 274.125 C 105.699219 274.125 105.734375 274.109375 105.757812 274.078125 C 105.785156 274.050781 105.796875 274.011719 105.789062 273.972656 L 105.050781 268.480469 L 105.046875 263.773438 C 105.046875 262.835938 104.300781 262.070312 103.378906 262.070312 C 102.460938 262.070312 101.714844 262.835938 101.714844 263.773438 L 101.707031 268.429688 L 101.207031 274.082031 C 101.207031 274.121094 101.21875 274.160156 101.246094 274.1875 C 101.269531 274.214844 101.308594 274.230469 101.34375 274.226562 L 102.519531 274.183594 L 102.519531 278.324219 C 102.519531 278.398438 102.578125 278.457031 102.652344 278.457031 L 105.660156 278.457031 C 105.734375 278.457031 105.792969 278.398438 105.792969 278.324219 C 105.792969 277.910156 105.464844 277.433594 105.042969 277.433594 " fill-opacity="1" fill-rule="nonzero"/></g><g clip-path="url(#5e6f83247e)"><path fill="#000000" d="M 109.359375 260.96875 C 110.308594 260.96875 111.078125 260.179688 111.078125 259.210938 C 111.078125 258.246094 110.308594 257.457031 109.359375 257.457031 C 108.414062 257.457031 107.640625 258.246094 107.640625 259.210938 C 107.640625 260.179688 108.414062 260.96875 109.359375 260.96875 " fill-opacity="1" fill-rule="nonzero"/></g><g clip-path="url(#6ece02b2ec)"><path fill="#000000" d="M 111.078125 277.40625 L 110.324219 277.40625 L 110.324219 269.644531 C 110.796875 269.316406 111.078125 268.78125 111.078125 268.191406 L 111.078125 263.285156 C 111.078125 262.320312 110.308594 261.53125 109.359375 261.53125 C 108.414062 261.53125 107.640625 262.320312 107.640625 263.285156 L 107.640625 268.191406 C 107.640625 268.8125 107.957031 269.378906 108.476562 269.695312 L 108.476562 278.324219 C 108.476562 278.398438 108.535156 278.457031 108.605469 278.457031 L 111.714844 278.457031 C 111.789062 278.457031 111.847656 278.398438 111.847656 278.324219 C 111.847656 277.898438 111.511719 277.40625 111.078125 277.40625 " fill-opacity="1" fill-rule="nonzero"/></g><path fill="#000000" d="M 115.929688 261.535156 C 116.847656 261.535156 117.59375 260.769531 117.59375 259.832031 C 117.59375 258.894531 116.847656 258.132812 115.929688 258.132812 C 115.007812 258.132812 114.261719 258.894531 114.261719 259.832031 C 114.261719 260.769531 115.007812 261.535156 115.929688 261.535156 " fill-opacity="1" fill-rule="nonzero"/><g clip-path="url(#ab9c3245be)"><path fill="#000000" d="M 117.589844 277.433594 L 116.867188 277.433594 L 116.867188 274.128906 L 118.207031 274.125 C 118.246094 274.125 118.28125 274.109375 118.308594 274.078125 C 118.332031 274.050781 118.34375 274.011719 118.339844 273.972656 L 117.597656 268.480469 L 117.59375 263.773438 C 117.59375 262.835938 116.847656 262.070312 115.929688 262.070312 C 115.007812 262.070312 114.261719 262.835938 114.261719 263.773438 L 114.257812 268.429688 L 113.757812 274.082031 C 113.753906 274.121094 113.765625 274.160156 113.792969 274.1875 C 113.820312 274.214844 113.855469 274.230469 113.894531 274.226562 L 115.066406 274.183594 L 115.066406 278.324219 C 115.066406 278.398438 115.128906 278.457031 115.199219 278.457031 L 118.207031 278.457031 C 118.28125 278.457031 118.339844 278.398438 118.339844 278.324219 C 118.339844 277.910156 118.011719 277.433594 117.589844 277.433594 " fill-opacity="1" fill-rule="nonzero"/></g><path fill="#bd6300" d="M 347.222656 180.019531 C 347.222656 181.5 347.148438 182.976562 347.003906 184.449219 C 346.859375 185.917969 346.644531 187.378906 346.355469 188.832031 C 346.066406 190.28125 345.707031 191.714844 345.277344 193.128906 C 344.847656 194.542969 344.351562 195.9375 343.785156 197.300781 C 343.21875 198.667969 342.589844 200.003906 341.890625 201.308594 C 341.195312 202.613281 340.4375 203.878906 339.613281 205.109375 C 338.792969 206.339844 337.914062 207.523438 336.976562 208.667969 C 336.039062 209.8125 335.046875 210.90625 334 211.953125 C 332.957031 212.996094 331.863281 213.988281 330.71875 214.929688 C 329.578125 215.867188 328.390625 216.746094 327.160156 217.566406 C 325.933594 218.390625 324.664062 219.148438 323.363281 219.847656 C 322.058594 220.542969 320.722656 221.175781 319.355469 221.742188 C 317.992188 222.304688 316.601562 222.804688 315.1875 223.234375 C 313.773438 223.664062 312.339844 224.023438 310.890625 224.308594 C 309.441406 224.597656 307.980469 224.816406 306.507812 224.960938 C 305.035156 225.105469 303.5625 225.179688 302.082031 225.179688 C 300.605469 225.179688 299.128906 225.105469 297.660156 224.960938 C 296.1875 224.816406 294.726562 224.597656 293.277344 224.308594 C 291.828125 224.023438 290.394531 223.664062 288.980469 223.234375 C 287.566406 222.804688 286.175781 222.304688 284.808594 221.742188 C 283.445312 221.175781 282.109375 220.542969 280.804688 219.847656 C 279.5 219.148438 278.234375 218.390625 277.003906 217.566406 C 275.777344 216.746094 274.589844 215.867188 273.449219 214.929688 C 272.304688 213.988281 271.210938 212.996094 270.164062 211.953125 C 269.121094 210.90625 268.128906 209.8125 267.191406 208.667969 C 266.253906 207.523438 265.371094 206.339844 264.550781 205.109375 C 263.730469 203.878906 262.972656 202.613281 262.273438 201.308594 C 261.578125 200.003906 260.945312 198.667969 260.378906 197.300781 C 259.816406 195.9375 259.316406 194.542969 258.886719 193.128906 C 258.457031 191.714844 258.101562 190.28125 257.8125 188.832031 C 257.523438 187.378906 257.308594 185.917969 257.160156 184.449219 C 257.015625 182.976562 256.945312 181.5 256.945312 180.019531 C 256.945312 178.542969 257.015625 177.066406 257.160156 175.59375 C 257.308594 174.125 257.523438 172.664062 257.8125 171.210938 C 258.101562 169.761719 258.457031 168.328125 258.886719 166.914062 C 259.316406 165.496094 259.816406 164.105469 260.378906 162.742188 C 260.945312 161.375 261.578125 160.039062 262.273438 158.734375 C 262.972656 157.429688 263.730469 156.164062 264.550781 154.933594 C 265.371094 153.703125 266.253906 152.515625 267.191406 151.375 C 268.128906 150.230469 269.121094 149.136719 270.164062 148.089844 C 271.210938 147.046875 272.304688 146.054688 273.449219 145.113281 C 274.589844 144.175781 275.777344 143.296875 277.003906 142.476562 C 278.234375 141.652344 279.5 140.894531 280.804688 140.195312 C 282.109375 139.5 283.445312 138.867188 284.808594 138.300781 C 286.175781 137.734375 287.566406 137.238281 288.980469 136.808594 C 290.394531 136.378906 291.828125 136.019531 293.277344 135.730469 C 294.726562 135.445312 296.1875 135.226562 297.660156 135.082031 C 299.128906 134.9375 300.605469 134.863281 302.082031 134.863281 C 303.5625 134.863281 305.035156 134.9375 306.507812 135.082031 C 307.980469 135.226562 309.441406 135.445312 310.890625 135.730469 C 312.339844 136.019531 313.773438 136.378906 315.1875 136.808594 C 316.601562 137.238281 317.992188 137.734375 319.355469 138.300781 C 320.722656 138.867188 322.058594 139.5 323.363281 140.195312 C 324.664062 140.894531 325.933594 141.652344 327.160156 142.476562 C 328.390625 143.296875 329.578125 144.175781 330.71875 145.113281 C 331.863281 146.054688 332.957031 147.046875 334 148.089844 C 335.046875 149.136719 336.039062 150.230469 336.976562 151.375 C 337.914062 152.515625 338.792969 153.703125 339.613281 154.933594 C 340.4375 156.164062 341.195312 157.429688 341.890625 158.734375 C 342.589844 160.039062 343.21875 161.375 343.785156 162.742188 C 344.351562 164.105469 344.847656 165.496094 345.277344 166.914062 C 345.707031 168.328125 346.066406 169.761719 346.355469 171.210938 C 346.644531 172.664062 346.859375 174.125 347.003906 175.59375 C 347.148438 177.066406 347.222656 178.542969 347.222656 180.019531 Z M 347.222656 180.019531 " fill-opacity="1" fill-rule="nonzero"/><path fill="#ffa500" d="M 270.832031 148.757812 C 270.832031 150.578125 270.746094 152.394531 270.566406 154.207031 C 270.386719 156.019531 270.121094 157.816406 269.765625 159.601562 C 269.410156 161.386719 268.96875 163.152344 268.441406 164.890625 C 267.914062 166.632812 267.300781 168.347656 266.605469 170.027344 C 265.90625 171.710938 265.132812 173.351562 264.273438 174.957031 C 263.414062 176.5625 262.480469 178.121094 261.46875 179.636719 C 260.460938 181.148438 259.378906 182.609375 258.222656 184.015625 C 257.070312 185.425781 255.847656 186.769531 254.5625 188.058594 C 253.273438 189.34375 251.929688 190.566406 250.523438 191.722656 C 249.117188 192.875 247.65625 193.957031 246.144531 194.96875 C 244.628906 195.980469 243.070312 196.914062 241.464844 197.773438 C 239.863281 198.632812 238.21875 199.410156 236.539062 200.105469 C 234.855469 200.800781 233.144531 201.414062 231.40625 201.941406 C 229.664062 202.472656 227.902344 202.914062 226.117188 203.269531 C 224.332031 203.625 222.535156 203.890625 220.722656 204.070312 C 218.914062 204.246094 217.097656 204.335938 215.277344 204.335938 C 213.457031 204.335938 211.644531 204.246094 209.832031 204.070312 C 208.023438 203.890625 206.222656 203.625 204.4375 203.269531 C 202.65625 202.914062 200.890625 202.472656 199.152344 201.941406 C 197.410156 201.414062 195.699219 200.800781 194.015625 200.105469 C 192.335938 199.410156 190.695312 198.632812 189.089844 197.773438 C 187.484375 196.914062 185.925781 195.980469 184.414062 194.96875 C 182.898438 193.957031 181.441406 192.875 180.035156 191.722656 C 178.628906 190.566406 177.28125 189.34375 175.992188 188.058594 C 174.707031 186.769531 173.488281 185.425781 172.332031 184.015625 C 171.179688 182.609375 170.097656 181.148438 169.085938 179.636719 C 168.074219 178.121094 167.140625 176.5625 166.28125 174.957031 C 165.425781 173.351562 164.648438 171.710938 163.949219 170.027344 C 163.253906 168.347656 162.640625 166.632812 162.113281 164.890625 C 161.585938 163.152344 161.144531 161.386719 160.789062 159.601562 C 160.433594 157.816406 160.167969 156.019531 159.988281 154.207031 C 159.8125 152.394531 159.722656 150.578125 159.722656 148.757812 C 159.722656 146.9375 159.8125 145.121094 159.988281 143.3125 C 160.167969 141.5 160.433594 139.703125 160.789062 137.917969 C 161.144531 136.132812 161.585938 134.367188 162.113281 132.625 C 162.640625 130.882812 163.253906 129.171875 163.949219 127.492188 C 164.648438 125.808594 165.425781 124.164062 166.28125 122.558594 C 167.140625 120.953125 168.074219 119.394531 169.085938 117.882812 C 170.097656 116.367188 171.179688 114.910156 172.332031 113.5 C 173.488281 112.09375 174.707031 110.746094 175.992188 109.460938 C 177.28125 108.171875 178.628906 106.953125 180.035156 105.796875 C 181.441406 104.640625 182.898438 103.558594 184.414062 102.546875 C 185.925781 101.535156 187.484375 100.601562 189.089844 99.746094 C 190.695312 98.886719 192.335938 98.109375 194.015625 97.414062 C 195.699219 96.714844 197.410156 96.101562 199.152344 95.574219 C 200.890625 95.046875 202.65625 94.605469 204.4375 94.25 C 206.222656 93.894531 208.023438 93.628906 209.832031 93.449219 C 211.644531 93.269531 213.457031 93.183594 215.277344 93.183594 C 217.097656 93.183594 218.914062 93.269531 220.722656 93.449219 C 222.535156 93.628906 224.332031 93.894531 226.117188 94.25 C 227.902344 94.605469 229.664062 95.046875 231.40625 95.574219 C 233.144531 96.101562 234.855469 96.714844 236.539062 97.414062 C 238.21875 98.109375 239.863281 98.886719 241.464844 99.746094 C 243.070312 100.601562 244.628906 101.535156 246.144531 102.546875 C 247.65625 103.558594 249.117188 104.640625 250.523438 105.796875 C 251.929688 106.953125 253.273438 108.171875 254.5625 109.460938 C 255.847656 110.746094 257.070312 112.09375 258.222656 113.5 C 259.378906 114.910156 260.460938 116.367188 261.46875 117.882812 C 262.480469 119.394531 263.414062 120.953125 264.273438 122.558594 C 265.132812 124.164062 265.90625 125.808594 266.605469 127.492188 C 267.300781 129.171875 267.914062 130.882812 268.441406 132.625 C 268.96875 134.367188 269.410156 136.132812 269.765625 137.917969 C 270.121094 139.703125 270.386719 141.5 270.566406 143.3125 C 270.746094 145.121094 270.832031 146.9375 270.832031 148.757812 Z M 270.832031 148.757812 " fill-opacity="1" fill-rule="nonzero"/><g clip-path="url(#58240a71ad)"><path fill="#008aa9" d="M 363.152344 343.515625 L 234.382812 343.515625 C 227.804688 343.515625 222.472656 338.117188 222.472656 331.460938 L 222.472656 316.269531 C 222.472656 273.632812 256.632812 239.070312 298.765625 239.070312 C 340.902344 239.070312 375.054688 273.632812 375.054688 316.269531 L 375.054688 331.460938 C 375.0625 338.117188 369.730469 343.515625 363.152344 343.515625 Z M 363.152344 343.515625 " fill-opacity="1" fill-rule="nonzero"/></g><g clip-path="url(#f696a0465f)"><path fill="#37d0ee" d="M 289.859375 343.515625 L 135.402344 343.515625 C 127.515625 343.515625 121.117188 337.042969 121.117188 329.058594 L 121.117188 310.828125 C 121.117188 259.691406 162.089844 218.230469 212.632812 218.230469 C 263.179688 218.230469 304.144531 259.691406 304.144531 310.828125 L 304.144531 329.058594 C 304.152344 337.042969 297.757812 343.515625 289.859375 343.515625 Z M 289.859375 343.515625 " fill-opacity="1" fill-rule="nonzero"/></g><g clip-path="url(#ee46cf9057)"><path fill="#ffce29" d="M 180.945312 107.3125 C 180.945312 108.449219 180.917969 109.585938 180.859375 110.722656 C 180.804688 111.855469 180.722656 112.988281 180.609375 114.121094 C 180.5 115.253906 180.359375 116.382812 180.191406 117.503906 C 180.027344 118.628906 179.832031 119.75 179.609375 120.867188 C 179.386719 121.980469 179.140625 123.089844 178.863281 124.191406 C 178.585938 125.296875 178.285156 126.390625 177.953125 127.480469 C 177.625 128.566406 177.269531 129.644531 176.886719 130.714844 C 176.503906 131.785156 176.09375 132.847656 175.660156 133.898438 C 175.222656 134.949219 174.761719 135.988281 174.277344 137.015625 C 173.792969 138.042969 173.28125 139.058594 172.746094 140.0625 C 172.207031 141.0625 171.648438 142.050781 171.066406 143.027344 C 170.480469 144.003906 169.871094 144.964844 169.242188 145.910156 C 168.609375 146.855469 167.957031 147.785156 167.277344 148.695312 C 166.601562 149.609375 165.902344 150.503906 165.179688 151.382812 C 164.460938 152.261719 163.71875 153.125 162.953125 153.964844 C 162.191406 154.808594 161.410156 155.632812 160.605469 156.4375 C 159.800781 157.238281 158.976562 158.023438 158.136719 158.789062 C 157.292969 159.550781 156.433594 160.292969 155.554688 161.015625 C 154.675781 161.734375 153.78125 162.433594 152.867188 163.113281 C 151.957031 163.789062 151.027344 164.445312 150.082031 165.074219 C 149.136719 165.707031 148.175781 166.316406 147.203125 166.898438 C 146.226562 167.484375 145.238281 168.042969 144.234375 168.582031 C 143.234375 169.117188 142.21875 169.628906 141.191406 170.113281 C 140.164062 170.601562 139.125 171.058594 138.074219 171.496094 C 137.023438 171.929688 135.964844 172.339844 134.894531 172.722656 C 133.824219 173.105469 132.746094 173.460938 131.660156 173.792969 C 130.570312 174.121094 129.476562 174.425781 128.375 174.703125 C 127.269531 174.976562 126.164062 175.226562 125.046875 175.449219 C 123.933594 175.671875 122.8125 175.863281 121.691406 176.03125 C 120.566406 176.199219 119.4375 176.339844 118.308594 176.449219 C 117.175781 176.5625 116.042969 176.644531 114.90625 176.699219 C 113.773438 176.757812 112.636719 176.785156 111.5 176.785156 C 110.363281 176.785156 109.226562 176.757812 108.09375 176.699219 C 106.957031 176.644531 105.824219 176.5625 104.691406 176.449219 C 103.5625 176.339844 102.433594 176.199219 101.308594 176.03125 C 100.1875 175.863281 99.066406 175.671875 97.953125 175.449219 C 96.835938 175.226562 95.730469 174.976562 94.625 174.703125 C 93.523438 174.425781 92.429688 174.121094 91.339844 173.792969 C 90.253906 173.460938 89.175781 173.105469 88.105469 172.722656 C 87.035156 172.339844 85.976562 171.929688 84.925781 171.496094 C 83.875 171.058594 82.835938 170.601562 81.808594 170.113281 C 80.78125 169.628906 79.765625 169.117188 78.765625 168.582031 C 77.761719 168.042969 76.773438 167.484375 75.796875 166.898438 C 74.824219 166.316406 73.863281 165.707031 72.917969 165.074219 C 71.972656 164.445312 71.042969 163.789062 70.132812 163.113281 C 69.21875 162.433594 68.324219 161.734375 67.445312 161.015625 C 66.566406 160.292969 65.707031 159.550781 64.863281 158.789062 C 64.023438 158.023438 63.199219 157.238281 62.394531 156.4375 C 61.589844 155.632812 60.808594 154.808594 60.046875 153.964844 C 59.28125 153.125 58.539062 152.261719 57.820312 151.382812 C 57.097656 150.503906 56.398438 149.609375 55.722656 148.695312 C 55.042969 147.785156 54.390625 146.855469 53.757812 145.910156 C 53.128906 144.964844 52.519531 144.003906 51.933594 143.027344 C 51.351562 142.050781 50.792969 141.0625 50.253906 140.0625 C 49.71875 139.058594 49.207031 138.042969 48.722656 137.015625 C 48.238281 135.988281 47.777344 134.949219 47.339844 133.898438 C 46.90625 132.847656 46.496094 131.785156 46.113281 130.714844 C 45.730469 129.644531 45.375 128.566406 45.046875 127.480469 C 44.714844 126.390625 44.414062 125.296875 44.136719 124.191406 C 43.859375 123.089844 43.613281 121.980469 43.390625 120.867188 C 43.167969 119.75 42.972656 118.628906 42.808594 117.503906 C 42.640625 116.382812 42.5 115.253906 42.390625 114.121094 C 42.277344 112.988281 42.195312 111.855469 42.140625 110.722656 C 42.082031 109.585938 42.054688 108.449219 42.054688 107.3125 C 42.054688 106.175781 42.082031 105.039062 42.140625 103.902344 C 42.195312 102.769531 42.277344 101.632812 42.390625 100.503906 C 42.5 99.371094 42.640625 98.242188 42.808594 97.117188 C 42.972656 95.992188 43.167969 94.875 43.390625 93.757812 C 43.613281 92.644531 43.859375 91.535156 44.136719 90.433594 C 44.414062 89.328125 44.714844 88.234375 45.046875 87.144531 C 45.375 86.058594 45.730469 84.976562 46.113281 83.90625 C 46.496094 82.835938 46.90625 81.777344 47.339844 80.726562 C 47.777344 79.675781 48.238281 78.636719 48.722656 77.609375 C 49.207031 76.582031 49.71875 75.566406 50.253906 74.5625 C 50.792969 73.5625 51.351562 72.570312 51.933594 71.597656 C 52.519531 70.621094 53.128906 69.660156 53.757812 68.714844 C 54.390625 67.769531 55.042969 66.839844 55.722656 65.929688 C 56.398438 65.015625 57.097656 64.117188 57.820312 63.238281 C 58.539062 62.359375 59.28125 61.5 60.046875 60.65625 C 60.808594 59.816406 61.589844 58.992188 62.394531 58.1875 C 63.199219 57.382812 64.023438 56.601562 64.863281 55.835938 C 65.707031 55.074219 66.566406 54.332031 67.445312 53.609375 C 68.324219 52.890625 69.21875 52.1875 70.132812 51.511719 C 71.042969 50.835938 71.972656 50.179688 72.917969 49.546875 C 73.863281 48.917969 74.824219 48.308594 75.796875 47.722656 C 76.773438 47.140625 77.761719 46.578125 78.765625 46.042969 C 79.765625 45.507812 80.78125 44.996094 81.808594 44.511719 C 82.835938 44.023438 83.875 43.5625 84.925781 43.128906 C 85.976562 42.695312 87.035156 42.285156 88.105469 41.902344 C 89.175781 41.519531 90.253906 41.160156 91.339844 40.832031 C 92.429688 40.503906 93.523438 40.199219 94.625 39.921875 C 95.730469 39.644531 96.835938 39.398438 97.953125 39.175781 C 99.066406 38.953125 100.1875 38.757812 101.308594 38.59375 C 102.433594 38.425781 103.5625 38.285156 104.691406 38.175781 C 105.824219 38.0625 106.957031 37.980469 108.09375 37.925781 C 109.226562 37.867188 110.363281 37.839844 111.5 37.839844 C 112.636719 37.839844 113.773438 37.867188 114.90625 37.925781 C 116.042969 37.980469 117.175781 38.0625 118.308594 38.175781 C 119.4375 38.285156 120.566406 38.425781 121.691406 38.59375 C 122.8125 38.757812 123.933594 38.953125 125.046875 39.175781 C 126.164062 39.398438 127.269531 39.644531 128.375 39.921875 C 129.476562 40.199219 130.570312 40.503906 131.660156 40.832031 C 132.746094 41.160156 133.824219 41.519531 134.894531 41.902344 C 135.964844 42.285156 137.023438 42.695312 138.074219 43.128906 C 139.125 43.5625 140.164062 44.023438 141.191406 44.511719 C 142.21875 44.996094 143.234375 45.507812 144.234375 46.042969 C 145.238281 46.578125 146.226562 47.140625 147.203125 47.722656 C 148.175781 48.308594 149.136719 48.917969 150.082031 49.546875 C 151.027344 50.179688 151.957031 50.835938 152.867188 51.511719 C 153.78125 52.1875 154.675781 52.890625 155.554688 53.609375 C 156.433594 54.332031 157.292969 55.074219 158.136719 55.835938 C 158.976562 56.601562 159.800781 57.382812 160.605469 58.1875 C 161.410156 58.992188 162.191406 59.816406 162.953125 60.65625 C 163.71875 61.5 164.460938 62.359375 165.179688 63.238281 C 165.902344 64.117188 166.601562 65.015625 167.277344 65.929688 C 167.957031 66.839844 168.609375 67.769531 169.242188 68.714844 C 169.871094 69.660156 170.480469 70.621094 171.066406 71.597656 C 171.648438 72.570312 172.207031 73.5625 172.746094 74.5625 C 173.28125 75.566406 173.792969 76.582031 174.277344 77.609375 C 174.761719 78.636719 175.222656 79.675781 175.660156 80.726562 C 176.09375 81.777344 176.503906 82.835938 176.886719 83.90625 C 177.269531 84.976562 177.625 86.058594 177.953125 87.144531 C 178.285156 88.234375 178.585938 89.328125 178.863281 90.433594 C 179.140625 91.535156 179.386719 92.644531 179.609375 93.757812 C 179.832031 94.875 180.027344 95.992188 180.191406 97.117188 C 180.359375 98.242188 180.5 99.371094 180.609375 100.503906 C 180.722656 101.632812 180.804688 102.769531 180.859375 103.902344 C 180.917969 105.039062 180.945312 106.175781 180.945312 107.3125 Z M 180.945312 107.3125 " fill-opacity="1" fill-rule="nonzero"/></g><g clip-path="url(#bef92f0f79)"><path fill="#ffffff" d="M 111.5 37.839844 C 73.144531 37.839844 42.054688 68.941406 42.054688 107.3125 C 42.054688 119.476562 45.195312 130.890625 50.6875 140.839844 C 65.667969 136.984375 76.777344 123.5 76.777344 107.3125 C 76.777344 88.160156 92.355469 72.578125 111.5 72.578125 C 127.679688 72.578125 141.160156 61.453125 145.015625 46.476562 C 135.078125 40.980469 123.660156 37.839844 111.5 37.839844 Z M 111.5 37.839844 " fill-opacity="0.3" fill-rule="nonzero"/></g><path stroke-linecap="round" transform="matrix(6.944444, 0, 0, 6.947162, -34.722214, -17.972877)" fill="none" stroke-linejoin="round" d="M 14.87075 16.034006 C 15.456875 14.225152 16.815876 12.762099 18.556813 12.033947 " stroke="#ffffff" stroke-width="3" stroke-opacity="1" stroke-miterlimit="10"/><g clip-path="url(#ef8cf2387a)"><path fill="#68e5fd" d="M 205.714844 343.515625 L 17.285156 343.515625 C 7.660156 343.515625 -0.144531 335.625 -0.144531 325.882812 L -0.144531 303.644531 C -0.144531 241.261719 49.832031 190.679688 111.5 190.679688 C 173.167969 190.679688 223.144531 241.253906 223.144531 303.644531 L 223.144531 325.882812 C 223.144531 335.617188 215.347656 343.515625 205.714844 343.515625 Z M 205.714844 343.515625 " fill-opacity="1" fill-rule="nonzero"/></g><g clip-path="url(#b331bd2421)"><path fill="#000000" d="M 223.144531 325.875 L 223.144531 303.640625 C 223.144531 270.902344 209.296875 241.511719 187.3125 220.878906 C 174.109375 231.261719 169.964844 249.917969 178.421875 265.035156 C 184.964844 276.726562 188.421875 290.070312 188.421875 303.640625 L 188.421875 308.773438 L 132.332031 308.773438 C 113.152344 308.773438 97.609375 324.328125 97.609375 343.507812 L 205.714844 343.507812 C 215.347656 343.515625 223.144531 335.617188 223.144531 325.875 Z M 223.144531 325.875 " fill-opacity="0.15" fill-rule="nonzero"/></g></svg>